<svg xmlns="http://www.w3.org/2000/svg" xmlns:xlink="http://www.w3.org/1999/xlink" contentStyleType="text/css" data-diagram-type="DESCRIPTION" height="568px" preserveAspectRatio="none" style="width:440px;height:568px;background:#FFFFFF;" version="1.1" viewBox="0 0 440 568" width="440px" zoomAndPan="magnify"><defs/><g><!--cluster api--><g class="cluster" data-entity="api" data-source-line="2" data-uid="ent0003" id="cluster_api"><rect fill="none" height="309" rx="2.5" ry="2.5" style="stroke:#181818;stroke-width:1;" width="347" x="33" y="106.5"/><text fill="#000000" font-family="sans-serif" font-size="14" font-weight="bold" lengthAdjust="spacing" textLength="24.2676" x="194.3662" y="121.4951">api</text></g><!--cluster Postgres--><g class="cluster" data-entity="Postgres" data-source-line="8" data-uid="ent0008" id="cluster_Postgres"><path d="M6,449.5 C6,439.5 214.5,439.5 214.5,439.5 C214.5,439.5 423,439.5 423,449.5 L423,541.5 C423,551.5 214.5,551.5 214.5,551.5 C214.5,551.5 6,551.5 6,541.5 L6,449.5" fill="none" style="stroke:#181818;stroke-width:1;"/><path d="M6,449.5 C6,459.5 214.5,459.5 214.5,459.5 C214.5,459.5 423,459.5 423,449.5" fill="none" style="stroke:#181818;stroke-width:1;"/><text fill="#000000" font-family="sans-serif" font-size="14" font-weight="bold" lengthAdjust="spacing" textLength="69.6582" x="179.6709" y="474.4951">Postgres</text></g><!--entity Game Service--><g class="entity" data-entity="Game Service" data-source-line="3" data-uid="ent0004" id="entity_Game Service"><rect fill="#F1F1F1" height="46.2969" rx="2.5" ry="2.5" style="stroke:#181818;stroke-width:0.5;" width="137.8701" x="49" y="141.5"/><rect fill="#F1F1F1" height="10" style="stroke:#181818;stroke-width:0.5;" width="15" x="166.8701" y="146.5"/><rect fill="#F1F1F1" height="2" style="stroke:#181818;stroke-width:0.5;" width="4" x="164.8701" y="148.5"/><rect fill="#F1F1F1" height="2" style="stroke:#181818;stroke-width:0.5;" width="4" x="164.8701" y="152.5"/><text fill="#000000" font-family="sans-serif" font-size="14" lengthAdjust="spacing" textLength="97.8701" x="64" y="174.4951">Game Service</text></g><!--entity Game Model--><g class="entity" data-entity="Game Model" data-source-line="4" data-uid="ent0005" id="entity_Game Model"><rect fill="#F1F1F1" height="46.2969" rx="2.5" ry="2.5" style="stroke:#181818;stroke-width:0.5;" width="128.1631" x="56" y="247.5"/><rect fill="#F1F1F1" height="10" style="stroke:#181818;stroke-width:0.5;" width="15" x="164.1631" y="252.5"/><rect fill="#F1F1F1" height="2" style="stroke:#181818;stroke-width:0.5;" width="4" x="162.1631" y="254.5"/><rect fill="#F1F1F1" height="2" style="stroke:#181818;stroke-width:0.5;" width="4" x="162.1631" y="258.5"/><text fill="#000000" font-family="sans-serif" font-size="14" lengthAdjust="spacing" textLength="88.1631" x="71" y="280.4951">Game Model</text></g><!--entity Event Publisher--><g class="entity" data-entity="Event Publisher" data-source-line="5" data-uid="ent0006" id="entity_Event Publisher"><rect fill="#F1F1F1" height="46.2969" rx="2.5" ry="2.5" style="stroke:#181818;stroke-width:0.5;" width="149.0742" x="48.5" y="353.5"/><rect fill="#F1F1F1" height="10" style="stroke:#181818;stroke-width:0.5;" width="15" x="177.5742" y="358.5"/><rect fill="#F1F1F1" height="2" style="stroke:#181818;stroke-width:0.5;" width="4" x="175.5742" y="360.5"/><rect fill="#F1F1F1" height="2" style="stroke:#181818;stroke-width:0.5;" width="4" x="175.5742" y="364.5"/><text fill="#000000" font-family="sans-serif" font-size="14" lengthAdjust="spacing" textLength="109.0742" x="63.5" y="386.4951">Event Publisher</text></g><!--entity Query Handler--><g class="entity" data-entity="Query Handler" data-source-line="6" data-uid="ent0007" id="entity_Query Handler"><rect fill="#F1F1F1" height="46.2969" rx="2.5" ry="2.5" style="stroke:#181818;stroke-width:0.5;" width="142.1221" x="222" y="141.5"/><rect fill="#F1F1F1" height="10" style="stroke:#181818;stroke-width:0.5;" width="15" x="344.1221" y="146.5"/><rect fill="#F1F1F1" height="2" style="stroke:#181818;stroke-width:0.5;" width="4" x="342.1221" y="148.5"/><rect fill="#F1F1F1" height="2" style="stroke:#181818;stroke-width:0.5;" width="4" x="342.1221" y="152.5"/><text fill="#000000" font-family="sans-serif" font-size="14" lengthAdjust="spacing" textLength="102.1221" x="237" y="174.4951">Query Handler</text></g><!--entity Event Store--><g class="entity" data-entity="Event Store" data-source-line="9" data-uid="ent0009" id="entity_Event Store"><rect fill="#F1F1F1" height="46.2969" rx="2.5" ry="2.5" style="stroke:#181818;stroke-width:0.5;" width="121.8672" x="22" y="489.5"/><rect fill="#F1F1F1" height="10" style="stroke:#181818;stroke-width:0.5;" width="15" x="123.8672" y="494.5"/><rect fill="#F1F1F1" height="2" style="stroke:#181818;stroke-width:0.5;" width="4" x="121.8672" y="496.5"/><rect fill="#F1F1F1" height="2" style="stroke:#181818;stroke-width:0.5;" width="4" x="121.8672" y="500.5"/><text fill="#000000" font-family="sans-serif" font-size="14" lengthAdjust="spacing" textLength="81.8672" x="37" y="522.4951">Event Store</text></g><!--entity Game Summary Projection--><g class="entity" data-entity="Game Summary Projection" data-source-line="10" data-uid="ent0010" id="entity_Game Summary Projection"><rect fill="#F1F1F1" height="46.2969" rx="2.5" ry="2.5" style="stroke:#181818;stroke-width:0.5;" width="228.0156" x="179" y="489.5"/><rect fill="#F1F1F1" height="10" style="stroke:#181818;stroke-width:0.5;" width="15" x="387.0156" y="494.5"/><rect fill="#F1F1F1" height="2" style="stroke:#181818;stroke-width:0.5;" width="4" x="385.0156" y="496.5"/><rect fill="#F1F1F1" height="2" style="stroke:#181818;stroke-width:0.5;" width="4" x="385.0156" y="500.5"/><text fill="#000000" font-family="sans-serif" font-size="14" lengthAdjust="spacing" textLength="188.0156" x="194" y="522.4951">Game Summary Projection</text></g><!--entity ctl--><g class="entity" data-entity="ctl" data-source-line="1" data-uid="ent0002" id="entity_ctl"><ellipse cx="205" cy="14" fill="#F1F1F1" rx="8" ry="8" style="stroke:#181818;stroke-width:0.5;"/><path d="M205,22 L205,49 M192,30 L218,30 M205,49 L192,64 M205,49 L218,64" fill="none" style="stroke:#181818;stroke-width:0.5;"/><text fill="#000000" font-family="sans-serif" font-size="14" lengthAdjust="spacing" textLength="17.0762" x="196.4619" y="78.4951">ctl</text></g><!--link ctl to Game Service--><g class="link" data-entity-1="ctl" data-entity-2="Game Service" data-source-line="13" data-uid="lnk11" id="link_ctl_Game Service"><path d="M191.41,63.09 C175.92,84.27 154.1813,114.0165 137.7013,136.5565" fill="none" id="ctl-to-Game Service" style="stroke:#181818;stroke-width:1;"/><polygon fill="#181818" points="134.16,141.4,142.7009,136.4956,137.1111,137.3638,136.2429,131.7739,134.16,141.4" style="stroke:#181818;stroke-width:1;"/></g><!--link Game Service to Game Model--><g class="link" data-entity-1="Game Service" data-entity-2="Game Model" data-source-line="14" data-uid="lnk12" id="link_Game Service_Game Model"><path d="M118.42,187.56 C118.76,205.2 119.1244,223.8411 119.4644,241.4811" fill="none" id="Game Service-to-Game Model" style="stroke:#181818;stroke-width:1;"/><polygon fill="#181818" points="119.58,247.48,123.4058,238.4046,119.4836,242.4809,115.4073,238.5588,119.58,247.48" style="stroke:#181818;stroke-width:1;"/></g><!--link Game Model to Event Publisher--><g class="link" data-entity-1="Game Model" data-entity-2="Event Publisher" data-source-line="15" data-uid="lnk13" id="link_Game Model_Event Publisher"><path d="M120.64,293.56 C121.15,311.2 121.69,329.8424 122.19,347.4824" fill="none" id="Game Model-to-Event Publisher" style="stroke:#181818;stroke-width:1;"/><polygon fill="#181818" points="122.36,353.48,126.1034,344.3703,122.2183,348.482,118.1066,344.5969,122.36,353.48" style="stroke:#181818;stroke-width:1;"/></g><!--link Event Publisher to Event Store--><g class="link" data-entity-1="Event Publisher" data-entity-2="Event Store" data-source-line="16" data-uid="lnk14" id="link_Event Publisher_Event Store"><path d="M116.39,399.63 C108.98,424.46 98.7473,458.751 91.3273,483.591" fill="none" id="Event Publisher-to-Event Store" style="stroke:#181818;stroke-width:1;"/><polygon fill="#181818" points="89.61,489.34,96.0186,481.8614,91.0411,484.5492,88.3533,479.5717,89.61,489.34" style="stroke:#181818;stroke-width:1;"/></g><!--link Event Publisher to Game Summary Projection--><g class="link" data-entity-1="Event Publisher" data-entity-2="Game Summary Projection" data-source-line="17" data-uid="lnk15" id="link_Event Publisher_Game Summary Projection"><path d="M151.07,399.63 C182.57,424.46 228.6575,460.7862 260.1775,485.6262" fill="none" id="Event Publisher-to-Game Summary Projection" style="stroke:#181818;stroke-width:1;"/><polygon fill="#181818" points="264.89,489.34,260.2971,480.6276,260.9629,486.2452,255.3454,486.911,264.89,489.34" style="stroke:#181818;stroke-width:1;"/></g><!--link ctl to Query Handler--><g class="link" data-entity-1="ctl" data-entity-2="Query Handler" data-source-line="18" data-uid="lnk16" id="link_ctl_Query Handler"><path d="M218.56,62.83 C234.18,83.96 256.2718,113.8363 273.0118,136.4663" fill="none" id="ctl-to-Query Handler" style="stroke:#181818;stroke-width:1;"/><polygon fill="#181818" points="276.58,141.29,274.4435,131.6757,273.6065,137.2703,268.0119,136.4333,276.58,141.29" style="stroke:#181818;stroke-width:1;"/></g><!--link Query Handler to Game Summary Projection--><g class="link" data-entity-1="Query Handler" data-entity-2="Game Summary Projection" data-source-line="19" data-uid="lnk17" id="link_Query Handler_Game Summary Projection"><path d="M293,187.67 C293,250.02 293,420.4 293,483.07" fill="none" id="Query Handler-to-Game Summary Projection" style="stroke:#181818;stroke-width:1;"/><polygon fill="#181818" points="293,489.07,297,480.07,293,484.07,289,480.07,293,489.07" style="stroke:#181818;stroke-width:1;"/></g><!--SRC=[VP112i8m44NtESMGVQ_WJdGZLBeK5zDqg94qaKbQ4F7kfcsGs5AN_-VdyHXKmJ585OmKJ2gWRGs1n8UMy180bmDs11Nne1LTlyN9DMIck1_81YZxscX_8vwwSq_yX2FQnepDMpGOi4OVmQNpeMNoYJx_hg931g_whiC8ADdTev9sTcI8IHAAOhUK-etP8bdcONvTIQ-QV9VqDZQRofdluY2B_9_p0G00]--></g></svg>